<?xml version="1.0" encoding="utf-8"?>
<!-- Generator: Adobe Illustrator 24.1.1, SVG Export Plug-In . SVG Version: 6.00 Build 0)  -->
<svg version="1.1" id="Слой_1" xmlns="http://www.w3.org/2000/svg" xmlns:xlink="http://www.w3.org/1999/xlink" x="0px" y="0px"
	 viewBox="0 0 175.1 178.5" style="enable-background:new 0 0 175.1 178.5;" xml:space="preserve">
<style type="text/css">
	.st0{fill-rule:evenodd;clip-rule:evenodd;}
</style>
<g>
	<path class="st0" d="M0.2,72C0.2,72,0.2,72,0.2,72C0.1,72.1,0,72.2,0,72.2C0,72.2,0.1,72.1,0.2,72z"/>
	<path class="st0" d="M8.5,46.3c0,0.1,0,0.2-0.1,0.2c0,0-0.1,0-0.2,0L8.5,46.3z"/>
	<path class="st0" d="M44,56.2c0,0.1,0,0.1,0,0.2c0,0-0.1,0-0.1,0c0,0,0,0,0-0.1C43.9,56.3,43.9,56.3,44,56.2z"/>
	<path class="st0" d="M65.3,26.3c0,0.1-0.1,0.2-0.1,0.2C65,26.3,65,26.2,65.3,26.3z"/>
	<polygon class="st0" points="115.5,119.9 115.3,73 88.7,99.6 60.9,74.5 60.4,119.9 49.4,119.9 50.4,55.6 60.9,55.6 88.7,82 
		114.5,55.4 127,55.6 127.3,119.9 	"/>
	<path class="st0" d="M150.1,27c0,0.1,0,0.1,0,0.2c0,0-0.1,0-0.1,0L150.1,27z"/>
	<path class="st0" d="M171.8,80.6c0.3,3-2.4,8.1-2.7,8.6c-2,3.6-0.6,5.4-3.2,7c-0.6,0.4-1.3,0.7-1.9,0.7c-1.1,0.1-2.1,0.9-3.2,1.3
		c-1.8,0.7-0.7,2.3-3.4,4.1c-1.5,1-4.4,4.1-4.2,5.7c0.4,4,6.7-3.6,9.1,0.2c0.5,0.9,0,2.2-0.3,2.5c-3.8,3.3-5,8.8-6.7,14.1
		c-1,3.2-3.3,0.6-4.1,5.5c-0.5,3-3.9,2.2-6,1.5c-1.4-0.5-4.6,0.5-5.5,2.2c-2.1,3.9-3.4,1.8-2.8,5.5c0.5,3-0.3,2-2.5,2
		c-0.7,0-1.3-0.2-1.7-1.1c-0.8-1.6-2.1-2.4-3-3.7c-0.3-0.5-1.6,0-1.1,1.4c1.8,4.7,0.4,0.2,5,10.2c0.8,1.7-0.1,4.8-1.2,4.5
		c-6.1-1.8-6.2-1.7-7.6-2.8c-5.3-4.4-3.4-3.4-5.1-3.8c-0.2-1.1-0.8-1.6-1.4-2.2c-1.3-1.1-1.4,1.4-1.4,2.3c-4.7,2.2-2.1,2.6-4.7,6.8
		c-0.9,1.4,0.2,4.3-1.6,6.1c-2.1,2-1.8-0.1-4.8-1.4c-6.7-3.1-6.9-7.9-9.2-8.6c-0.1-0.2-0.7-0.7-1-1.2c-2.2-3.6-5.4,1-6.7,2.7
		l0.1-0.3c-2.5,2.3-0.4,5.4-5.2,8.1c-2.1,1.2-2.4-1.4-1.6,5.1c0.1,1-0.5,2-1.1,1.6c-9.6-5.3-9,0.4-14.8-0.9c-7.1-1.6-8.6,1.4-10-2.4
		c-0.4-1.1-1.3-5-2.5-3.3c-1.6,2.4-2.9,3.8-1.6,5.1c2.1,2.1,0.7,4.8,2.4,6.5c1.5,1.6,1.7,4.4,2.8,6.3c0.1,0.2,0,0.6,0,0.9
		c-0.5,2.1-3.5,0.7-4.8-0.3c-0.6-0.5-1-1.3-1.7-1.3c-2.7,0-0.6-6.2-1.8-8.2c-0.8-1.4,0.4-4.5-1.4-4.8c-0.7-0.1-2.8,0.8-3.6,3.6
		c-0.3,1.1-0.6,1-5.6,2.2c-1.4,0.3-3.5-3.8-1.3-5.2c0.6-0.4,1.2-0.7,1.6-1.5c-0.6,0.3,2.2-3.4,0.4-3.7c-0.9-0.2-1.7,0.3-2,1.7
		c0.2-0.9-2,1-2.3,1.2c-0.9,0.7-2.4-0.7-2.3-2.2c0.2-3.9,2.2-5.8,0.3-7.9c-0.4-0.5-1.5-0.6-1.8,0c-1.1,2-0.1,1.2-2.4,3.8
		c0-0.1-0.3-0.4-0.7-1.6c-1.2-3.4,1.7-3.3-0.3-7.1c-1.1-2.1-1.4-2.6-2.6-1.4c-0.7,0.7-1.6,2.4-2.1,0.9c-0.3-0.7-0.3-0.2,0.5-6.6
		c-1.7-3-2.9-1.4-3.9-2.7c-2.7-3.4-5-1.9-6-3.6c-1.8-3-2.4-3.2-2-4.7c0.7-3.2,1.1-5.4-0.3-8.2c-0.3-0.7,0-1.9,0.5-2.5
		c0.5-0.6,2.2-0.5,0.4-4.4c-2-4.4-2.5,5.9-5.5-0.1c-1.4-2.9,2.5-2,1.6-6.3c-0.4-2,0.2-6.7,2.1-7.3c1.3-0.4,2.6,0,3.9-0.9
		c1.8-1.4-0.2-4.5-2.2-4.6c-0.5,0-4,0.3-4.2-0.6c-0.3-1-0.8-1.2-1.4-0.8c0,0-1-2.6-0.6-6.6l-0.2,0.2c0.7-1.4,0.4-2.9,0-4.3l0.1,0.1
		c-0.7-1.6,0.7-4.4-1.6-3.5c-2.4,1-1.4-0.8-3.7-6.2c0.6-0.6,2.2-2.5,2.6-3.7c3.2-2.3,7,1.6,6-3.7c-0.7-3.8-0.4-4.3-3.4-4.4
		c-0.1,0-0.4-0.4-0.4-0.6c-0.2-1.9,2.7-3.1,3.6-3.6c0.4-0.3,0.8-2,0.6-2.6c-1.5-3.7-1.7-3-0.7-6.8c0.5,0,0.1,0.3,2.5-2.6
		c2.9-1,8.7-6.6,16.6-8.6c1.8-0.4,2.2,7-0.4,7.1c-1.1,0-3.2-0.4-3.4,1.7c-0.5,4.3,6.2,4.8,7,5c1,0.4,1.7-0.2,2.3-1.2
		c2-3.4,1.5-0.8,1.6-7.8c0-1.7,2.6-2.2,4.2,1c1.6,3.2-1.9,3.1-0.8,5.5c1,2.2,2.1,3.4,2.9,4.1c1.4,1.2,2,1.2,0,2.3
		c-0.3,0.1-0.6,0.3-1,0.5c-1,0.5-2,1.5-1.2,2.5c0.8,1,1.5,1.6,2.2,1.7v71.2h28.2V91.3l17.5,17.5l2,2l0,0l0,0l19.5-19.5v37.5h28.2
		V49.7h-26.6L88.7,70.8L67.5,49.7H44.8c0.1-5.7,0.7-5.7,0.1-7c-0.7-1.6-0.8-3.7-1.8-5.1l-0.1,0.1c2.3-3.9,4.4-1.1,6.4,0.3
		c0.9,0.6,2.4-0.2,2.8-1.6c2.3-9.2,1.7-7.5,1.7-10.3c3.6-4.6,3.8-5.3,4.6-4.2c4.9,8,5.9,6.8,6.7,4.5c0.3,0.3,1,0.9,1.5,0.9
		c1.9-0.1,1.9-1.4,3.7-3.7c2-2.6,4.4,6.7,5,3.5c2.6-14.4,4-7.1,7.6-1c0.1,0.2,0,0.6,0,1c0.1,3.2,1.8,2.9,3.4,3.1
		c0.7,0.1,1.6-1.6,1.4-2.7c-0.4-2.4-1.5-3.1-0.9-6.5c1-5.2,0.9-6.2,2.3-6.1c1.2,0.1,3.3,0.4,3.4-1.7c0.2-11.5,0-11.5,1.2-11.8
		C94.4,1.4,95,1.7,95.4,4c0.7,4.6,3.3,2.8,4.5,4.9c0.9,1.5,1.9,2.6,3.2,3.1c1.1,0.5-0.4,5.4,1.6,7.9c0.9,1.1,3.2-0.7,3.9-3.8
		c0.7-3.6-0.1-5.7,2.1-9c1.2-1.7,0.5-4.3,2.8-6.4c2.6-2.5,8.3,2.7,6.4,7.7c-0.6,1.6-0.2,4.6,1.2,4.7c4.5,0.2,4.9-0.4,6.2,2
		c0.3,0.5,0.4,2.6,2.6,0.9l0.1,0.3c2.5,1.2,4.2,4.6,6.8,5.7c0.5,0.2,0.4,0.5,2.1,3.6c3.6,6.5,7.8,5.5,3.6,12
		c-1.5,2.4,3.1,4.7,6.2,2.6c1.5-1,3-1,4.5-1.3c1.7-0.4,0.9-3.6-0.3-4.1c-1.7-0.7-3.8,0.8-4.3-0.8c-0.1-0.2,0.1-0.6,0.3-0.8
		c1.7-2,1.2-4.2,1.3-5.9c0.8-0.1,1,0,6.1,8.2c3.4,5.3-1,10.8,8,8c1.8-0.5,3.5-0.2,5.3-0.3c1-0.1,1.6,1.4,1.1,2.6
		c-1.4,4-4.4,3.5-3.6,5.9c0.6,1.7,1.7,2.2,3,3.7c0.6,0.7,0.8,2.7,0.3,3.6c-0.4,0.8-0.9,1.4-1.3,2.2c-1.2,2.5-0.9,5.5,0,6.1
		c1.8,1.2,5.7,4,5.9,6.9C175.3,77.5,170.9,73.3,171.8,80.6z"/>
	<g>
		<g>
			<path d="M43.9,56.4C43.9,56.4,43.9,56.4,43.9,56.4c0,0.1,0.1,0.1,0.1,0.1c0-0.1,0-0.1,0-0.2C43.9,56.3,43.9,56.3,43.9,56.4z
				 M44,56.4C43.9,58.2,45,56.4,44,56.4L44,56.4z M40.9,49.7v7.9c0.8,0.1,1.7-0.3,2.9-1.3c0.4-3.3-3.2-4-0.4-4.2
				c0.6,0,1.4-1.1,1.4-1.8c0-0.2,0-0.4,0-0.6H40.9z"/>
		</g>
	</g>
</g>
</svg>
