<?xml version="1.0" encoding="utf-8"?>
<!-- Generator: Adobe Illustrator 24.1.1, SVG Export Plug-In . SVG Version: 6.00 Build 0)  -->
<svg version="1.1" id="Слой_1" xmlns="http://www.w3.org/2000/svg" xmlns:xlink="http://www.w3.org/1999/xlink" x="0px" y="0px"
	 viewBox="0 0 169.1 145.7" style="enable-background:new 0 0 169.1 145.7;" xml:space="preserve">
<style type="text/css">
	.st0{fill-rule:evenodd;clip-rule:evenodd;}
</style>
<g>
	<path class="st0" d="M152.9,68.7c-2.4,0-2.3,1-3.2,1.6c-0.2,0.1-0.8,0.2-1.3-0.3c-1-1,0.8-1.9,1.2-2.4c1.2-1.5,0.7-1.6-1.3-3.1
		c-1.2,0.1-2.3,0.2-3.3,0.6l-0.3-0.3c0.3-0.8,0.4-1.7,1.1-2.2c0,0,0.1,0,0.1-0.1c-0.4-0.1-0.8-0.2-1.1,0.3c-0.6,0.9-1.2,0.4-1.9-0.2
		c-0.6-0.5-1.7-0.8-1.6-1.8c0.1-1.2-0.7-2.2-1.9-1.3c-0.1,0.1-0.2,0.1-0.3,0.1c-0.9-0.3-0.1-0.8,0.6-2.1c0.3-0.7-0.8-0.6-1.4-1
		c-0.4-0.3-0.3-0.4-0.8-2.5c-0.7,0.4-1,0.1-5-2.1c-0.6-0.3-0.9-1.2-0.6-1.6c1.1-1.1,1.6-0.9,2-1.9c0.6-1.3,1-1.6,0.6-2
		c-0.8-0.7-1.1,1-2.1,1.1c-0.6,0.1-1.1-0.6-1-0.8c0.3-0.6,0.6-1.3,0.9-1.9c1.1-0.8,1.3-2.2,2.2-3.1c0.4-0.4,0.3-1.8-0.1-2
		c-0.5-0.4-0.5,0-1.8,1c-0.6,0.5-0.7,0.2-3.1-1.4c-1.3-0.9-0.1-1.3,0.7-2.9c0.3-0.5,0.8-0.3,1-1.4c0.1-0.3-0.1-0.6-0.5-0.8
		c-2.2-0.9-2.8-1-4.1-0.6c-2.2,0.7-2.8,0.7-3.1,1.3c-0.4,0.7-2.3,1.6-3,1.3c-1.8-0.7-1.2,1.6-2.4,0.5c-4.5-3.9-0.3-1.8-0.7-3.8
		c-0.1-0.6-0.8-1-1.1-0.8c-0.3,0.2-0.6,0.4-0.9,0.6c-0.5,0.3-1.2-0.2-1.8-0.1c-0.9,0-1.8-1.6-2.6-0.7c-0.6,0.7-3,0.7,0.4,1.3
		c1.7,0.3,2.7,1.9,4.1,4.1c0.4,0.6,0.3,1.7-0.2,1.8c-0.8,0.1-1.2,0.6-1.7,1c1.2,1.1,1.7,3.1,1.1,6l-13.9,65.3
		c-1,4.6-3.8,5.8-7.7,3.6L71.8,99.4l-10.3,9.8c-1.1,1.1-2.1,2.1-4.3,2.1l1.5-21.5l39.4-35.4c1.7-1.5-0.4-2.4-2.7-0.8L46.7,84.1
		l-20.9-6.5c-4.6-1.4-4.7-4.5,0.9-6.7l82-31.4c1.2-0.5,2.4-0.5,3.3-0.2c-0.1-0.4,0-1.1,0.2-1.9c0.1-0.4,0.1-0.5-1.6-3.5
		c-0.3-0.5-0.7-0.8-1.2-1.1c0-0.3-0.2-0.6-0.4-0.9c-1.8-1.8-0.3-2-1.8-2.9c-1-0.6-1-1.5-1.3-2.5c-0.6-1.8-4.1,0.1-3.9,1
		c0.2,0.6-0.1,1-0.4,1.4c-0.9,1.3,1.8,1.9,2.9,3.1c0.5,0.5,0.4,1.1-1.6,0.9c-2.2-0.3-2.2,1.3-3.2-0.3c-1.3-1.8-1.6-1.6-2.5-2.2
		c-2-1.3,1.8-3.7,3.4-4.2c1.2-0.4,0.1-1.4,1.5-2.3c0.8-0.5,1.3-1.1,1.8-1.2c0.9-0.4,3,1.6,2.5,0c-0.8-2.6,0.6-1.6,0.5-3.7
		c0-1.1,0.7-2.6,1.2-2.5c1.6,0.4,1-1.2,1.4-1.3c2-0.8,3.3-4.9,5.1-2.1c1.4,2.2,4.1,3.5,4.2,2.9c0.1-0.8-1.1-1.1-1.5-2.1
		c-0.7-1.5-3.3-1.8-2.8-3.4c0.4-1.1,0.3-1.1-1.3-1.8c-0.7-0.3-1-0.6-0.7-1c1-1.2,0.8-2.9-1.4-1.9c-0.5,0.2-0.8,1.6-2,0.1
		c-0.6-0.8-1.3-1.1-2.2-0.9c-1.6,0.3-1.9-2.3-3.9-2c-3.5,0.6-2.8,1-5.5,0.3c-1.6-0.4-1.7-1.8-2.7-1.6c-0.4,0.1-0.4,0.5,0.1,1
		c0.8,0.7,0.8,1.1,0.5,1.5c-0.9,1.1-1.8,0-2.4-0.4c-2.5-2.1-1.5,3-5.1,0.3c-1.6-1.2-0.9,0.5-1,0.8c-0.1,0.3-1.2-0.5-1.8-0.4
		c-1.7,0.3-2,0.7-1.8,1.5c0.4,1.6,0.3,2,1.4,3.1c0.8,0.9,1.7,1.7,1.2,2.5c-0.4,0.6-1.8,1.7-3.3,2.1c-0.3,0.1-1.2-0.5-1.3-0.8
		c-0.1-0.4-0.2-0.9-0.3-1.3c-0.2-0.9-1.7-1.6-2.4-1.1c-1.1,0.8-2.2,1.5-3.3,2.2c-0.9,0.6-2.1,0.9-2.8,1.7c-0.4,0.4-1.5-0.3-2.3-0.7
		c-1.5,0.9-3.1,1.5-4.4,2.5c-0.2,0.1-0.5,0.2-0.8,0.1c-2.1-0.3-1.6,1.8-3.4,3.3c-1.5,1.3,0.8,2.6-1,3.9c-1.1,0.8-2.5-0.2-5.1,1.6
		c-3.4,2.4-3.6,3-5.3,2.5c-1.9-0.5-6.9,4.8-8.8,5.5c-0.2,0.1-3,4.3-4.2,3.5c-1-0.6,0.9-3.4,1.4-3.9c0.5-0.4,0.8-0.8,1-1.5
		c0.4-1.4,1.1-1.7,1.9-2.5c0.6-0.7,0.5-1,0.4-1.7c-0.4,1-1.5,1.8-2.1,2.2c-0.3,0.2-0.7-0.3-0.6-0.5c1.4-2.4,1.6-2.9,2.7-2.6
		c0.3-1.2,0.3-2.1,1.6-2c1.6,0.1,1.8,0.9,2.7,0.4c3.3-2.3,1.7-2.2,6.4-2.1c0.4,0,1-0.9-0.8-1.1c-0.6,0-1.2,0.1-1.8-0.4
		c-0.7-0.5-0.7-1.1-1-1.7c-0.2-0.3-0.2-0.3-3.7-1c-2.1-0.4,0.5,2.3-0.7,3.3c-1,0.8-3.1-0.2-3.4-0.8c-0.9-1.7-0.6-2.5-1.8-2.5
		c-2.6,0-2.7-0.2-2.9,0.7c-0.1,0.2,0.3,2.3-0.9,1.6c-1-0.6-1.8-0.8-2.2,0.2c-0.3,0.6-0.1,1,0.2,2v0.4c0,1-1,0.5-1.6,0.5
		c-1.6-0.1,0.1,2-2.2,2c-1.1,0-1.6,1-3.1,2.3c-0.6,0.5-0.9,0.3-4,0.7c-0.3,0-0.2,0.8,0.2,1.1c0.4,0.4,0.9,0.7,1.4,0.9
		c4.5,1.2,4.7,0.5,5,1.5c0,0.1,0,0.3,0,0.3c-1.7,0.5-0.8,1.8-2,2.3c-1.3,0.5-2.3,1.4-3.4,2c-0.6,0.3-0.4,1.8,0.6,2.2
		c1.7,0.7,2.8,0.8,3.4,2.3c-0.6,0-0.9,0.3-1.3,0.6c-1,0.9-3.3,0.7-4,0.1c0,0-0.1-0.1-0.1-0.1c0,0,0.1,0.1,0.1,0.1
		c0.3,0.4,0.5,0.8,0.8,1.1c1.1,0.7,2,1.7,3,2.6c0.2,0.2,0.7,0.1,0.7-0.1c-0.2-1.4-0.7-1.8-0.1-1.9c0.5-0.1,1.1,0.5,1.3,0.7
		c0.7,0.8,1.7,1.5,1.7,2.5c0,0.8,1,2.9,0.4,3.7c0,0.1-0.4,0-0.4-0.1c-1.2-1.2-3.1-1.7-3.5-1c-0.2,0.5,0.5,0.8,0.8,1.2
		c0.7,0.7,0.6,1.4-0.1,1.2c-4-1-2.7,1.2-4.6,0.1c-0.6-0.3-0.3-0.4-3.4-2c-2.1-1.1-1.8,1.4-0.6,1.5c1.9,0.2,3,0,4.1,1.3
		c0.5,0.6,1.2,0.9,1.9,1.2c1.4,0,3.1,1.3,3.1,2c0,0.1,0,0.1,0,0.2c-1.3,3.2-2.9,1-4,0.6c-1.1-0.4-1.2,0.2-0.8,0.7
		c0.7,0.8,1.2,1.5,0.5,1.9c-0.6,0.3-0.6,1-0.8,1.6c-0.2,0.8-1.5-0.5-2.5,0c-2.4,1.3-3.4-1.2-8.1-0.9c-0.3,0-0.2,0.9,0,1.1
		c0.4,0.4,0.9,0.8,1.3,1.1c1,0.9,1.4,2.3,0.6,2.7l0.3,0.1c-1.4-0.4-3.2,0.8-6.1-0.8c-2.5-1.4-4-0.9-7.6-0.5c-0.3,0-0.5,0.6-0.3,1
		c0.7,1,0.9,1.8,0.3,2.4c-2.5,2.7,4.7,6,3.6,7.1c-0.3,0.3-1.2,0.5-0.3,1.7c0.6,0.7,0.8,0.5,4.3,1.6c0.8,0.2,1.1,1.1,0.5,1.3
		c-1.2,0.5-2.7,1-3.6,1.3c-0.8,0.3-0.8,1.9,1.6,3.9c1.6,1.3,2.7,1.3,4,3.8c1.9,3.7-1.1,5.5,5.3,8.8c0.6,0.3,1.8,0.6,2.1,1.7
		c2.2,7.5,10.9,19,22.1,25.8c1.8,1.1,3.5,2.3,5.2,3.6c0.6,0.5,1.2,1,1.9,1.3c1.9,0.9,3.5,2.3,5.3,3.4c6.5,4,6.8,3.7,8.4,5.6
		c1.1,1.3,1.5,2.2,2.9,2.4c1.6,0.3,1.8,0,3.7-0.4c1-0.2,1.6,1.4,2.1,2.1c0.3,0.4,1.5,1.1,2.2,0.6c1.1-0.7,1.3-3.1,4.2-3.2
		c2.5-0.1,1.1-2,2.4-3.3c0.6-0.6,2.7,0.4,3.6,1.4c1.8,2,2.8,3,4.8,3.7c-1-1.4,0.2-1.4-0.4-3l-1.8-1.2c-0.6-0.4-0.8-1.3-0.2-1.4
		c1-0.2,2.6,0.3,1.9-1.6c-0.4-1.1,0-1.9-0.1-2.9c-0.1-1,0.6-1.3,1.4-1.4c1.7-0.2,1.2,1.5,2.9,2.6c0.9,0.6,0.7,1.3,0.8,1.7
		c0.1,0.3,1,0.9,1.3,0.9c0.5-0.1,0.7-0.6,1.1-0.9c2.2,0.2,2.1-1.3,5-0.4c3.8,1.1,4,4.5,5.5,1.8c-0.6-3.4,1.3-3.6,1.7-5.9
		c1.4-7.6,5.5-8.5,8-10.3c0.5-0.4,1.3,0.4,2.8,1c2,0.8,1.9-0.4,4.2,1.1c0.4,0.3,0.4,0.2,2.9-0.3c1.4-2,1.7-0.5,1-3.8
		c-0.3-0.9-0.5-1.1-0.7-1.1c-0.4,0-0.7,0.8-1.1,0.9c-1.1,0.5-2-1.3-2.5-2.7c-0.1-0.4-0.2-0.6,3.8-4.1c0.7-0.6,2.1-0.1,2.6-1.3
		c1.5-3.7,4.4-3.9,5.2-5.2c1.5-2.2,4.4-4.6,3.6-5c-0.8-0.4-1.3,0.5-2-0.5c-1.1-1.5,4-4.2,3.6-7.2c-0.1-0.7,1-2.1,1.3-2.5
		c0.4-0.5,1.6,0.2,2.3,0.5c1.9,0.8,1.4-0.7,2.3-0.8c0.7-0.1,2.9-1.4,0.9-3.4c-0.5-0.5-1.2-0.8-0.7-1.9c0.3-0.7,1.4-1.8,2.6-0.9
		c0.6,0.4,1.6,1,1.8,0.6c0.3-0.4-0.9-1.1-1.5-2.1c-1-1.6-4.1-3.4-5.1-2.3c-0.8,0.9-2,1.3-3.1,1.8c-0.7,0.4-1.9-0.1-2-0.8
		c-0.3-2,2.4-3.4-0.7-4.5c-0.9-0.3-0.8-0.8-0.7-1c1.7-1.6,1.4-1.5,2.6-0.6c2.1,1.6,2,1.7,3,1.3c2.1-0.9,1.7,2,3.9,2.5
		c0.9,0.2,2.1,0.8,2.6,0.2c0.6-0.7,1.2-2.4,3.3-3.6c0.2-0.1,0.3-0.7,0.2-1.1c-0.6-3.2,2.1-1.2,2.8-3.2
		C153.9,69,153.3,68.7,152.9,68.7z M111,10c0.3,0.8-0.7,0.9-0.8,0.3C110.2,9.8,110.9,9.8,111,10z M108,6.9c1-0.2,1.5,0.9,0.8,1
		C108.2,8,107.3,7,108,6.9z M95.5,31.7c0.1,0,0.2,0.1,0.3,0.2C95.6,32.8,94.8,31.8,95.5,31.7z M80.4,42c0.5,0.6-0.5,0.4-0.6,0
		C79.8,41.7,80.2,41.8,80.4,42z M76.8,45c0.1,0,0.3,0.1,0.5,0.1c0,0.1,0.1,0.3,0.1,0.4c-0.6,0.7-1.8,2.4-2.6,1.2
		C74.5,46.3,74.6,46.4,76.8,45z M69.7,16.4c-0.1,0-0.3-0.1-0.4-0.1C69.3,15.2,70.2,16.2,69.7,16.4z M28,40.9c0.2-0.5,0.4-0.8,0.6-1
		C28.5,40.1,28.4,40.4,28,40.9z M35,27.3c-0.3,0-1-0.7-0.8-1C36.2,23.7,39.4,26.7,35,27.3z M34.7,21.7c0.3,0.2,0.3,0.5,0,0.6
		c-0.4,0.1-0.6,0.1-0.7,0.1C34,22,34.1,21.3,34.7,21.7z M33.1,27.3l0.3,0.3C33,27.6,33,27.7,33.1,27.3z M33.7,38
		c0.2,0.1,0.4,0.6,0.1,0.6c-0.8,0-1.5,0.2-2.3,0.5C30.6,39.4,29.1,36.3,33.7,38z M14.1,78.3c-1.2-0.3-1.4-1.5-1-1.7
		c2.2-1.5,2.3-1.1,4.3,0.5C18,77.8,16.1,78.8,14.1,78.3z M78.3,126.3c0.1-0.1,0.1-0.1,0.1-0.2C78.6,126.4,78.9,126.5,78.3,126.3z
		 M91.5,128.9c-0.7,0.2-1.3-0.6-0.8-1C91.2,127.4,92.3,128.7,91.5,128.9z M103.2,131.5c0,0.3-0.3,1.1-0.7,1.1c-0.5,0-0.3-1-0.8-1.5
		c-0.7-0.7-1.1-1.4-1.6-2.2c-0.4-0.6-0.5-1.2-0.1-1.5c0.6-0.4,0.9-1.5,2.8-2.1c1-0.3,1.4,2.1,1.5,3.2
		C104.6,130.1,103.2,129.3,103.2,131.5z M108.5,120.6c-0.6,0-1.2-0.3-1.9-0.7c-0.3-0.2-0.8-1-0.7-1.2c0.2-0.5,0-0.5,2.5-1.3
		C109.5,117.1,111.7,120.4,108.5,120.6z M127.3,68.2c0.3,0.2,0.3,1.1-0.5,0.5C126.5,68.5,126.5,67.7,127.3,68.2z M130.8,75.7
		c-1,1.4-1.6,1.7-3,1c-0.5-0.3-1-0.6-1.2-1.1c-0.9-2.7-1.7-3,2.3-1.9C129.3,73.8,131.3,74.9,130.8,75.7z M135.4,62.7
		c-0.2,0.1-0.6-0.1-0.7-0.4c-0.2-0.8,0.7-1.2,1.2-1C136.2,61.4,136.5,62.4,135.4,62.7z M138.6,65.2c0.2-0.5,1.8,0.3,1.5,1
		C139.4,67.5,138.1,66.6,138.6,65.2z M140.1,69.8c-0.9-0.4-0.4-1.2,0.2-1.1C140.9,68.8,140.9,70.2,140.1,69.8z M144.7,74.2
		c-1.6-0.1-1.9-2.4,0.3-2.9c1-0.2,2.8,1.3,3.2,2.8C148.4,75,147.9,74.4,144.7,74.2z M42,26.1c0,0,0,0.1,0,0.1c-0.1,0-0.1,0-0.1,0
		c0,0.3,0,0.6,0.1,0.8c0.1-0.3,0.2-0.6,0.2-0.9C42.1,26.1,42,26.1,42,26.1z M145.9,62.6c0.5,0.2,0.9,0.5,1.1,0
		C146.8,62.4,146.2,62.4,145.9,62.6z"/>
	<path class="st0" d="M154.8,56.6c-0.7,0.3-1.4,0.5-1.7,1.2c-0.6,1.3-2,1-2.4,0.6c-3.1-2.9-3-2.3-4.8-4.7c-0.7-0.9,0.2-1.3,0.6-1.5
		l-0.2-0.1c3.9,4.3,5.4-3.9,7.9-2.1c1.2,0.8,1.5,1.1,2.5,3.8c0.2,0.5-0.2,1.2-0.3,1.5c-0.2,1.1,2.1,2.8,3.3,3.1
		c0.5,0.2,0.9,0.7,0.7,1.1c-0.2,0.6-0.1,1.3,0.2,2.1c-0.1-0.3-0.6-0.1-1-0.3c-8-4.4-4.2-8.5-9.1-7.7c-2.1,0.3-1,2.5-0.2,2.7
		C152.1,56.9,153.6,57,154.8,56.6z"/>
	<path class="st0" d="M124.9,22.9c0.7-0.2,0.8,0.3,0.5,0.5c-0.7,0.6-0.9,0.4-1.4,0.6c-1,0.4-2.3,1.7-1.4,3c2.2,3.1,4.3,2.3,2.1,3.8
		c-1.7,1.2-0.3,2.8-2.5,2.1c-0.5-0.1-1.3-1.1-1.1-1.5c1.4-3.3-2.6-4.7-0.4-5.7C123.4,24.4,123.1,23.3,124.9,22.9z"/>
	<path class="st0" d="M84.9,144.5c-2.7-1.3-1.8,1.6-3.2,1.2c-0.6-0.2-0.8-0.4-2.1-3.9c-1-2.7,0.5-4.5,1.9-3.1
		c1.8,1.7,1.1,1.7,3.1,3.9c0.7,0.8,1.2,0.7,2.2,0.6c-0.3-0.1,0.9,0.7,0.2,1.4c-0.3,0.3-0.7,0.6-1,0.8
		C86.2,145.9,85.9,145,84.9,144.5z"/>
	<path class="st0" d="M144.2,43.8c0,0.2-0.4,0.9-1.2,0.7c-0.7-0.2-0.8-1-1.3-2.1c-0.9-2.2-4.7-0.7-0.3-2.9c1.2-0.6-0.8-1.3,0.6-3.2
		c0.3-0.3,2.8,1,2.6,2.6c-0.1,0.7-0.8,1.6-0.2,3.1c-2.1-3-2.6-1.1-1.5-0.6C144.5,42,144.6,41.3,144.2,43.8z"/>
	<path class="st0" d="M125.6,18.3c-0.2,0.2-0.5,0.2-0.8-0.2c-0.1-0.1,0-0.3-0.1-0.4c-0.4-1.1-1.5-0.8-1.7-0.4
		c-0.5,1.6-1.5,1.2-2.1,0.5c-1.2-1.4,1-1.7,1.9-2.5c0.4-0.4,0.8-2.6,2-0.8C126.6,17.2,127.1,17,125.6,18.3z"/>
	<path class="st0" d="M131.4,23.2c-1.8-0.9-2.3-1.8-3.7-2.2c-1.4-1.7,5.3-3.8,4.9-2.3c-0.7,2.7-0.7,2.7-1.4,4.4L131.4,23.2z"/>
	<path class="st0" d="M116.6,22.3c-1-1.5-0.2-1.4-0.9-2.1c-0.4-0.4-1.9-0.8-2.6,0.9c0.2,0.8-0.1,1.3-1,1.4c-0.1,0-0.3,0-0.3,0.1l0,0
		c0.2,1.3,1.3,2.6,2.5,2.6c0.8,0,1.6-0.5,2.4-1.7C116.9,23.4,117,22.9,116.6,22.3z M114.2,23.6c0-0.3,0.5-0.3,0.7-0.1
		C115.5,24.1,114.1,24.5,114.2,23.6z"/>
	<path class="st0" d="M107.9,135c-1.2-0.7-1.7-2.1-1.6-2.4c0.5-2,2.2-0.9,2.4-0.4c0.1,0.4,0.3-0.1,0,2.7
		C108.5,135,108.2,135.2,107.9,135z"/>
	<path class="st0" d="M150.9,39.9c-0.7,0.5-2.2-1.4-0.6-1.7c0.7-0.2,0.4-1.1,1.2-1.2c0.5,0,1.4,0.6,1.1,1.2
		C152.2,39,151.9,39.1,150.9,39.9z"/>
	<path class="st0" d="M55.6,15.2c-0.4-1.5,3.7,1,1.8,2c-0.8,0.4-1.5,0.6-1.4-0.3C56,16.2,55.7,15.5,55.6,15.2z"/>
	<path class="st0" d="M138.1,47.4c0.1-0.3,0.3-0.7,0.5-1.1c0.4-0.8,1.8,0,2.3,0.8c0.3,0.5-0.2,0.8-0.5,0.7c-2-0.4-1.6,0.8-2.3,1.3
		c-0.3,0.2-1-0.1-0.9-0.6C137.1,48.1,137.6,47.9,138.1,47.4z"/>
	<path class="st0" d="M129.4,26.2c0.8-2.3-0.2-0.8,1.2-2.9c0.1-0.2,0.5-0.1,0.8-0.1h-0.2c0.4,0.4,1,0.5,1.2,1
		c0.3,0.6-0.3,0.9-0.4,1.3c-0.1,0.4,0.2,0.9-0.7,1c-1.6,0.1-1,0.2-2.1-0.4L129.4,26.2z"/>
	<path class="st0" d="M6.3,60.6c-1.5,0.7-2.1,1.2-3,0.3C0,57.6,8,59.8,6.3,60.6z"/>
	<path class="st0" d="M148.5,34.7c-0.7-0.7-0.7-1-0.5-1.6c0.5-1.5,2.8,0,2.5,0.7C150,35.3,150,36.1,148.5,34.7z"/>
	<path class="st0" d="M151.7,48.9c-0.7,0.3-0.9,1.1-1.5,1.5c-0.3,0.2-1.4-0.1-1.8-0.6c-0.5-0.6-0.2-1,0.1-1s1.6,0.7,2.3-0.4
		c0.1-0.2,0.3-0.3,0.6-0.4c0.1,0,0.3,0.1,0.5,0.1C151.8,48.4,151.9,48.9,151.7,48.9z"/>
	<path class="st0" d="M133.2,30.3c-0.2-0.8,1.3,0,1.8-0.2c0.2-0.1,1.3-0.6,1.5-0.3c0.3,0.5,0.1,0.7-1.2,1.5
		C134.6,31.7,133.4,30.8,133.2,30.3z"/>
	<path class="st0" d="M151.2,43.4c0.1-0.6,1.5,0,1.8,0.9C153.5,45.8,150.9,45.2,151.2,43.4z"/>
	<path class="st0" d="M130.4,111.2c0.2-0.1,1.2,0.3-0.7,2.3c-0.1,0.1-0.8,0.3-1.2-0.1c-0.2-0.2-0.2-0.6-0.1-0.8
		C128.7,112.5,130.1,111.4,130.4,111.2z"/>
	<path class="st0" d="M110.6,26.7c1.3,2.4-2.5,2.1-1.1-0.4C109.7,25.9,110.5,26.4,110.6,26.7z"/>
	<path class="st0" d="M157.9,49.1c0-1.1,1.3-1,2.2,0.2C161.1,50.7,157.9,50.1,157.9,49.1z"/>
	<path class="st0" d="M129.6,15.2c-0.3,0.1-1.1-0.5-0.8-0.8C129.9,12.7,131.5,14.3,129.6,15.2z"/>
	<path class="st0" d="M116.6,18.2c-0.3,0.5-0.6,0.5-0.9,0.1c-0.3-0.4-0.1-0.5,0.4-0.8c0.1-0.1,0.5-0.3,0.7-0.2
		C117.1,17.6,116.7,17.9,116.6,18.2z"/>
	<path class="st0" d="M162.5,56.7c0,0.6-0.9,0.4-1.3-0.3C159.6,53.1,162.6,55.4,162.5,56.7z"/>
	<path class="st0" d="M22.5,42.6C22,44.2,18.8,42,20,41.7c0.9-0.3,2.4,0.9,2.7-0.2C22.6,41.5,22.6,42.4,22.5,42.6z"/>
	<path class="st0" d="M15.6,52.7c-1-0.8-0.9-1.4,0.1-1.3C16.6,51.5,16.7,53.6,15.6,52.7z"/>
	<path class="st0" d="M149.3,30c0.8,0.4,0.5,1.2-0.2,0.8C148,30.2,147.5,29,149.3,30z"/>
	<path class="st0" d="M93.6,138.7c-0.2,0.3-0.9,0.2-1-0.3c-0.5-1.3-0.4-1.4-0.1-1.4C93.2,136.7,94.2,138,93.6,138.7z"/>
	<path class="st0" d="M148.1,61c0.1,0.1,0.3,0.3,0.2,0.4c-0.2,0.6-0.6,0.9-1.3,1.1C147.2,63.1,146.4,61.4,148.1,61z"/>
	<path class="st0" d="M144.8,44.9c-0.2-0.5,0.4-0.5,0.7-0.2C146,45.5,145,45.6,144.8,44.9z"/>
	<path class="st0" d="M110.6,21.9c-1-1,1.5-0.8,1.1,0.7C112.2,22.6,111.4,22.7,110.6,21.9z"/>
	<path class="st0" d="M146.5,52.3c-0.6-0.5-1.2-0.9-1.7-1.4c-0.5-0.4-0.1-0.9,0.2-0.8C145.6,50.4,145.9,52,146.5,52.3z"/>
	<path class="st0" d="M114.4,29.8c-0.6-0.8,0.2-1,0.8-0.2C115.9,30.3,115,30.6,114.4,29.8z"/>
	<path class="st0" d="M108.6,0.2c0.2-0.4,1.3-0.1,1.2,0.5C109.6,1.3,108.4,0.5,108.6,0.2z"/>
	<path class="st0" d="M155.7,41.8c0.1,0.3,0,0.6-0.3,0.6c-0.1,0-0.4,0-0.5-0.1C154.4,41.5,155.5,41.3,155.7,41.8z"/>
	<path class="st0" d="M148.7,37.9c-0.3,0.5-1.2-0.1-1.1-0.7C147.6,36.4,149.1,37.2,148.7,37.9z"/>
	<path class="st0" d="M167.9,54.3c0.2-0.4,0.9-0.1,1.1,0.1c0.2,0.2,0.2,0.9-0.5,0.6C168.1,54.9,167.8,54.5,167.9,54.3z"/>
	<path class="st0" d="M61,13.6c-0.8-0.9,0.5-1.3,0.8-0.3C62,13.9,61.2,13.8,61,13.6z"/>
	<path class="st0" d="M128.9,27.4c-0.3,0.2-1-0.3-0.8-0.7c0.2-0.5,0.7-0.6,1.3-0.5C129.2,25.6,129.8,26.8,128.9,27.4z"/>
	<path class="st0" d="M141.4,26.1c0.3,0.4,1.3,0.3,0.3-0.6C141.6,25.8,141,25.5,141.4,26.1z"/>
	<path class="st0" d="M123.2,20.7c-0.3-0.4-0.3-0.3,0.1-0.5C123.5,20.6,123.6,20.5,123.2,20.7z"/>
	<path class="st0" d="M133.2,36.2c-0.1,0-0.4,0-0.4-0.1c-0.2-0.3-0.2-0.5,0-0.6C133.3,35.4,133.6,36,133.2,36.2z"/>
	<path class="st0" d="M149.4,79.8c-0.1,0-0.2,0-0.3,0c0-0.1,0-0.2,0-0.3C149.5,79.5,149.6,79.6,149.4,79.8z"/>
	<path class="st0" d="M126.6,114.4l0.3,0.2C126.8,114.7,126.9,114.7,126.6,114.4z"/>
	<path class="st0" d="M89.6,133.6c-0.6-0.4-0.1-0.9,0.3-0.4C90.1,133.4,89.8,133.7,89.6,133.6z"/>
	<path class="st0" d="M87.1,142.2c0,0.4-0.1,0.7-0.5,0.9h0.1c-0.6-0.9-0.1-1.1,0.7-1.9C87.5,141.3,87,141.5,87.1,142.2z"/>
	<path class="st0" d="M24.6,53.7c-0.2-0.1,0-0.1,0.4,0.1C25.1,53.7,24.8,53.8,24.6,53.7z"/>
	<path class="st0" d="M125.4,117.3c-0.1-0.2,0.6,0.6,0.7,0.7C126.8,118.9,128.8,119.1,125.4,117.3z"/>
	<path class="st0" d="M20.6,59.3c-0.4-0.1-0.4,0-0.5-0.4C20.6,59,20.5,58.9,20.6,59.3z"/>
	<path class="st0" d="M137.7,53.9c0,0.1-0.1,0.1-0.1,0.2C138.2,54.3,137.4,53.8,137.7,53.9z"/>
	<path class="st0" d="M152.9,64.8l-0.2-0.2C153,64.6,152.9,64.5,152.9,64.8z"/>
	<path class="st0" d="M153.6,60c-0.1-0.5-0.2-0.4,0.3-0.3C154,60.2,154,60.1,153.6,60z"/>
	<path class="st0" d="M117.6,28.8l0.2,0.2C117.5,29.1,117.6,29.1,117.6,28.8z"/>
	<path class="st0" d="M160.9,61.5c0.3,0.3,0.2,0.3-0.3,0.1C160.7,61.8,160.7,61.7,160.9,61.5z"/>
	<path class="st0" d="M112.8,21l0.3,0.1C113,20.9,113.1,20.9,112.8,21z"/>
	<path class="st0" d="M32.6,16.9l0.2,0.2C32.5,17.1,32.6,17.2,32.6,16.9z"/>
	<path class="st0" d="M87.8,137.3l0.2-0.1C88.2,137.5,88.2,137.5,87.8,137.3z"/>
	<path class="st0" d="M87.1,138.3v0.3C87.1,138.4,87,138.3,87.1,138.3z"/>
	<path class="st0" d="M144.6,33l-0.2,0.1C144.3,32.7,144.2,32.7,144.6,33z"/>
	<path class="st0" d="M141.7,25.5c0.1,0.1,0.1,0.2,0.2,0.3C142.2,25.4,141.6,25.9,141.7,25.5z"/>
	<path class="st0" d="M85.9,145.4c0.1,0.1,0.2,0.1,0.3,0.2c0-0.3-0.1-0.3-0.2,0L85.9,145.4z"/>
	<path class="st0" d="M127.4,118.4c0,0,0,0.1-0.1,0.2C127.4,118.6,127.3,118.9,127.4,118.4z"/>
</g>
</svg>
