<?xml version="1.0" encoding="utf-8"?>
<!-- Generator: Adobe Illustrator 24.1.1, SVG Export Plug-In . SVG Version: 6.00 Build 0)  -->
<svg version="1.1" id="Слой_1" xmlns="http://www.w3.org/2000/svg" xmlns:xlink="http://www.w3.org/1999/xlink" x="0px" y="0px"
	 viewBox="0 0 184.5 166.2" style="enable-background:new 0 0 184.5 166.2;" xml:space="preserve">
<style type="text/css">
	.st0{fill-rule:evenodd;clip-rule:evenodd;}
</style>
<g>
	<path class="st0" d="M149.4,54.2c0,0,0,0.1,0,0.1C149.5,54.3,149.5,54.3,149.4,54.2c0.1,0,0.2,0,0.2,0H149.4z M161.6,62.2
		C161.6,62.2,161.6,62.2,161.6,62.2C161.5,62.2,161.5,62.2,161.6,62.2c-0.3-0.2-0.9-0.1-1.2,0.2C160.9,62.5,161.4,62.7,161.6,62.2
		C161.6,62.2,161.6,62.2,161.6,62.2z M20.1,62L20.1,62L20.1,62L20.1,62z M169.1,67.8c-2.6,0.4-2.3,1.6-3.2,2.4
		c-0.2,0.2-0.8,0.4-1.4,0c-1.3-0.9,0.5-2.2,0.8-2.8c1-1.9,0.5-1.9-2-3.2c-1.3,0.4-2.5,0.7-3.5,1.3c0,0-0.4-0.2-0.4-0.2
		c0.2-0.9,0.2-2,0.8-2.7c0,0,0.1-0.1,0.1-0.1c-0.5-0.1-0.9-0.1-1.2,0.5c-0.5,1.1-1.3,0.6-2.1,0.1c-0.8-0.5-2-0.6-2.1-1.8
		c-0.1-1.3-1.2-2.3-2.3-1.1c-0.1,0.1-0.2,0.2-0.4,0.2c-1.1-0.1-0.2-0.9,0.3-2.5c0.2-0.8-1-0.5-1.7-0.9c-0.4-0.2-0.4-0.4-1.4-2.7
		c-0.7,0.6-1,0.3-5.9-1.4c-0.7-0.3-1.2-1.2-0.9-1.6c1-1.4,1.6-1.3,1.9-2.5c0.4-1.6,0.8-2,0.3-2.3c-1-0.7-1,1.3-2.1,1.7
		c-0.6,0.2-1.3-0.5-1.3-0.8c0.2-0.8,0.5-1.5,0.7-2.3c1.1-1,1.1-2.7,1.9-3.9c0.3-0.5-0.1-2-0.5-2.2c-0.7-0.3-0.6,0.2-1.8,1.4
		c-0.6,0.6-0.7,0.4-3.7-1c-1.6-0.7-0.4-1.4,0.2-3.3c0.2-0.7,0.8-0.5,0.9-1.7c0-0.4-0.3-0.6-0.7-0.7c-2.5-0.6-3.3-0.6-4.6,0.1
		c-2.3,1.2-2.9,1.3-3.2,2c-0.3,0.8-2.3,2.2-3.1,2c-2.2-0.4-1,2-2.5,1.1c-5.8-3.5-0.7-1.9-1.4-4c-0.2-0.6-1.1-0.9-1.4-0.7
		c-0.3,0.3-0.5,0.6-0.8,0.8c-0.4,0.4-1.4,0-2,0.2c-1,0.2-2.3-1.4-3-0.3c-0.6,0.9-3.2,1.3,0.7,1.4c1.9,0,3.3,1.6,5.3,3.8
		c0.5,0.6,0.7,1.8,0.1,2c-0.9,0.3-1.3,1-1.8,1.6c-0.4,0.4-2.3,0.3-1.8-2.9c0.1-0.5,0.1-0.6-2.5-3.6c-0.4-0.5-1-0.8-1.6-0.9
		c0-0.3-0.3-0.6-0.6-0.9c-2.3-1.6-0.7-2.1-2.6-2.9c-1.3-0.5-1.3-1.5-1.9-2.6c-1-1.8-4.5,0.9-4.1,1.8c0.3,0.7,0,1.1-0.2,1.6
		c-0.8,1.6,2.4,1.8,3.8,2.9c0.6,0.5,0.6,1.2-1.6,1.2c-2.5,0.1-2.2,1.8-3.6,0.3c-1.7-1.8-2.1-1.5-3.1-2c-2.4-1.1,1.3-4.4,2.9-5.3
		c1.2-0.6-0.1-1.6,1.2-2.8c0.8-0.8,1.3-1.4,1.7-1.7c1-0.6,3.6,1.2,2.7-0.5c-1.4-2.7,0.3-1.9-0.2-4.2c-0.3-1.2,0.3-3,0.9-3
		c1.9,0.1,0.9-1.5,1.3-1.7c2.1-1.3,2.7-6,5.3-3.3c2,2.1,5.2,3.1,5.1,2.4c-0.1-0.9-1.4-1-2.1-2c-1-1.6-4-1.4-3.8-3.3
		c0.2-1.3,0.1-1.3-1.8-1.8c-0.8-0.2-1.2-0.5-0.9-0.9c0.8-1.5,0.3-3.3-1.9-1.8c-0.5,0.3-0.6,1.9-2.2,0.5c-0.9-0.8-1.6-1-2.6-0.6
		c-1.8,0.6-2.6-2.2-4.7-1.5c-3.7,1.3-2.9,1.7-6,1.3c-1.8-0.2-2.3-1.6-3.3-1.3c-0.5,0.2-0.3,0.7,0.3,1.1c1,0.6,1.1,1,0.8,1.5
		c-0.8,1.3-2,0.4-2.7,0C87.9,5,90,10.4,85.5,8.1c-2-1-0.9,0.8-1,1c-0.1,0.3-1.4-0.4-2.1-0.1c-1.8,0.7-2.1,1.2-1.7,2
		c0.8,1.7,0.7,2.1,2.1,3.1c1.1,0.8,2.2,1.6,1.8,2.5c-0.3,0.7-1.7,2.2-3.3,3c-0.3,0.2-1.4-0.3-1.6-0.7c-0.2-0.5-0.3-0.9-0.5-1.4
		c-0.4-1-2.2-1.4-2.8-0.8c-1,1-2.1,2.1-3.2,3c-0.9,0.8-2.1,1.4-2.8,2.4c-0.3,0.5-1.7,0-2.7-0.4c-1.5,1.2-3.1,2.3-4.5,3.6
		c-0.2,0.2-0.5,0.3-0.9,0.3c-2.4,0-1.4,2.3-3.1,4.3c-1.4,1.7,1.3,2.7-0.3,4.4c-1.1,1.1-2.8,0.3-5.4,2.8c-3.3,3.3-3.5,3.9-5.3,3.8
		c-2.2-0.2-6.8,6.6-8.7,7.8c-0.2,0.1-2.5,5.4-4,4.7c-1.2-0.5,0.3-3.9,0.9-4.5c0.5-0.5,0.7-1.1,0.8-1.8c0.2-1.6,0.9-2,1.6-3.2
		c0.7-1.1,0.1-1.4-0.1-2.6c0,1.5-1.2,3-2.1,3.7C36.5,45.4,36,45,36,44.8c1.2-3.1,1.3-3.5,2.8-3.4h0.1c0.1-1.5-0.1-2.5,1.4-2.6
		c1.7-0.2,2.2,0.7,3-0.1c3.3-3.1,1.4-2.7,6.7-3.6c0.4-0.1,0.9-1.2-1.1-1c-0.7,0.1-1.3,0.3-2.1-0.1c-0.9-0.4-1-1.1-1.4-1.7
		c-0.2-0.3-0.2-0.3-4.2-0.4c-2.4,0,1,2.5-0.1,3.8c-1,1.1-3.4,0.4-3.9-0.3c-1.3-1.8-1.2-2.6-2.5-2.4c-2.9,0.5-3.1,0.3-3.1,1.3
		c0,0.2,0.7,2.5-0.7,2c-1.2-0.5-2.1-0.6-2.4,0.6c-0.2,0.8,0.1,1.1,0.6,2.1c0,0.1,0,0.2,0.1,0.4c0.2,1.1-1,0.8-1.7,0.9
		c-1.8,0.2,0.5,2.2-2,2.6c-1.2,0.2-1.5,1.4-3.1,3.1c-0.6,0.7-0.9,0.4-4.2,1.5c-0.4,0.1-0.1,0.9,0.4,1.2c0.6,0.3,1.2,0.7,1.7,0.7
		c5.2,0.5,5.3-0.3,5.8,0.7c0.1,0.1,0.1,0.3,0,0.4c-1.8,0.9-0.5,2.1-1.9,2.9c-1.4,0.8-2.3,1.9-3.4,2.9c-0.6,0.5-0.2,2,1.1,2.3
		c2,0.4,3.3,0.3,4.1,1.9c-0.7,0.1-0.9,0.6-1.3,0.9c-1.1,1.2-3.7,1.4-4.5,0.8c0.4,0.4,0.8,0.9,1.3,1.3c1.4,0.6,2.6,1.5,3.9,2.3
		c0.2,0.1,0.8,0,0.8-0.2c-0.5-1.5-1.1-1.9-0.5-2.1c0.5-0.2,1.3,0.4,1.6,0.6c1,0.7,2.2,1.3,2.3,2.5c0.1,0.9,1.6,3,1.1,4
		c0,0.1-0.4,0.1-0.5,0c-1.6-1.1-3.8-1.3-4-0.5c-0.2,0.5,0.7,0.8,1.1,1.1c0.9,0.7,0.9,1.4,0.1,1.3c-4.6-0.3-2.8,1.8-5,1
		c-0.8-0.3-0.4-0.4-4.1-1.5c-2.5-0.8-1.7,1.9-0.4,1.8c2.1-0.1,3.3-0.5,4.8,0.6c0.6,0.5,1.3,0.8,2,0.9c0.1,0,0.2,0,0.3,0.1h0l0,0
		c0,0,0,0,0,0l0,0c1.6-0.3,4,1,3.8,1.9c-0.8,3.8-3,1.6-4.3,1.4c-1.3-0.2-1.3,0.4-0.7,0.9c0.9,0.7,1.6,1.4,0.9,2
		c-0.6,0.5-0.5,1.2-0.5,1.9c-0.1,0.9-1.8-0.3-2.8,0.5c-2.4,1.8-4-0.7-9.1,0.5c-0.3,0.1-0.1,1,0.3,1.2c0.5,0.4,1.1,0.7,1.6,1
		c1.2,0.8,2,2.2,1.2,2.9l0,0c-1.5,0-3.3,1.4-6.6,0.3c-3-1-4.6-0.2-8.5,0.9c-0.3,0.1-0.5,0.8-0.1,1.1c0.9,1,1.3,1.8,0.8,2.6
		c-2.2,3.4,6.3,5.7,5.3,7.2c-0.3,0.4-1.2,0.8,0,1.9c0.8,0.7,1,0.5,5.1,1c0.9,0.1,1.4,1,0.8,1.4c-1.2,0.7-2.8,1.6-3.7,2.1
		c-0.8,0.5-0.5,2.2,2.5,4c2,1.1,3.3,0.9,5.2,3.4c2.8,3.8-0.2,6.3,7.5,8.8c0.8,0.2,2.1,0.4,2.6,1.5c3.9,8,15.6,19,29.3,24.4
		c2.2,0.9,4.3,1.9,6.4,3c0.8,0.4,1.6,0.9,2.3,1.1c2.2,0.6,4.3,1.9,6.5,2.8c8,3.2,8.2,2.8,10.4,4.7c1.4,1.2,2.1,2.1,3.6,2.2
		c1.9,0,2-0.4,4-1.1c1.1-0.4,2.1,1.2,2.7,1.9c0.4,0.4,1.8,0.9,2.5,0.3c1.1-1,0.9-3.6,4-4.3c2.7-0.6,0.8-2.4,2-4.1
		c0.5-0.7,3-0.1,4.2,0.9c2.4,1.9,3.7,2.8,6,3.2c-1.4-1.4-0.1-1.5-1.1-3.2l-2.2-1c-0.8-0.4-1.1-1.3-0.5-1.5c1.1-0.5,3-0.2,1.8-2.1
		c-0.7-1.2-0.3-2.1-0.7-3.2c-0.3-1.1,0.4-1.5,1.3-1.8c1.8-0.5,1.6,1.4,3.7,2.3c1.1,0.5,1,1.3,1.1,1.7c0.2,0.3,1.3,0.9,1.5,0.7
		c0.5-0.3,0.7-0.8,1.1-1.2c2.5-0.2,2-1.8,5.4-1.4c4.5,0.5,5.3,4.2,6.4,1c-1.3-3.7,0.8-4.2,0.8-6.9c0.1-8.6,4.5-10.4,7-12.9
		c0.5-0.5,1.5,0.1,3.3,0.5c2.4,0.5,2-0.8,4.9,0.4c0.5,0.2,0.4,0.2,3.1-0.8c1.2-2.5,1.8-0.8,0.4-4.3h0v0l0,0c0,0,0,0,0,0
		c-1.2-2.4-1.5-0.2-2,0.2c-1.1,0.7-2.5-1-3.2-2.6c-0.2-0.5-0.4-0.6,3.4-5.3c0.6-0.8,2.3-0.4,2.6-1.9c1-4.4,4.1-5.1,4.8-6.7
		c1.3-2.7,4-5.9,3.1-6.2c-0.9-0.3-1.4,0.8-2.3-0.1c-1.5-1.5,3.6-5.4,2.6-8.6c-0.2-0.7,0.7-2.6,0.9-3c0.3-0.6,1.8,0,2.6,0.1
		c2.3,0.5,1.5-1.1,2.4-1.3c0.7-0.2,3-2,0.3-3.9c-0.7-0.5-1.5-0.7-1.1-2c0.2-0.9,1.2-2.2,2.8-1.5c0.7,0.3,1.9,0.8,2.2,0.4
		c0.3-0.5-1.2-1.1-2.1-2c-1.5-1.6-5.1-2.9-6.1-1.5c-0.8,1.1-2,1.8-3.1,2.6c-0.7,0.5-2.2,0.2-2.4-0.5c-0.7-2.1,2-4.2-1.5-4.9
		c-1.1-0.2-1.1-0.8-1-0.9c1.6-2.1,1.3-1.9,2.7-1.2c2.6,1.4,2.6,1.5,3.6,0.9c2.1-1.4,2.3,1.8,4.7,2.1c1,0.1,2.5,0.5,3-0.2
		c0.5-0.9,0.8-2.9,3-4.6c0.2-0.2,0.2-0.8,0-1.2c-1.2-3.4,2.2-1.7,2.5-4.1C170.4,68,169.7,67.8,169.1,67.8z M111.9,10.8
		c0.5,0.8-0.6,1.1-0.8,0.5C111,10.7,111.8,10.5,111.9,10.8z M108,7.8c1-0.4,1.8,0.7,1.1,0.9C108.4,9,107.3,8.1,108,7.8z M25.9,60.3
		C25.9,60.3,25.9,60.3,25.9,60.3c0.1-0.7,0.4-1.1,0.6-1.3C26.4,59.2,26.2,59.5,25.9,60.3z M26.8,58.7C26.8,58.7,26.8,58.6,26.8,58.7
		c0.1,0,0.1,0,0.1-0.1C26.9,58.6,26.8,58.7,26.8,58.7z M17.5,104.3c-1.4-0.1-1.8-1.4-1.5-1.7c2.1-2,2.3-1.7,4.8-0.2
		C21.8,102.9,19.8,104.5,17.5,104.3z M29.8,37.8c0.3,0.1,0.4,0.5,0.1,0.7c-0.5,0.2-0.7,0.2-0.8,0.3C29.1,38.3,29,37.5,29.8,37.8z
		 M29.4,44.6c-0.4,0.1-0.3,0.2-0.3-0.2L29.4,44.6z M32,56.7c-0.9,0.2-1.7,0.6-2.4,1c-1.1,0.6-3.3-2.6,2.1-1.6
		C31.9,56.1,32.2,56.6,32,56.7z M31.2,44c-0.3,0.1-1.3-0.6-1.1-1C31.8,39.8,35.9,42.5,31.2,44z M98.8,37.6c0.1,0,0.3,0.1,0.4,0.1
		C99.2,38.8,98.1,37.8,98.8,37.6z M84,51.7c0.7,0.6-0.5,0.5-0.6,0.1C83.3,51.6,83.8,51.6,84,51.7z M80.7,55.8c0.1-0.1,0.4,0,0.5,0
		c0,0.1,0.2,0.3,0.1,0.4c-0.5,0.9-1.6,3-2.6,1.8C78.4,57.7,78.4,57.7,80.7,55.8z M67.5,25.4c-0.1,0-0.3,0-0.4,0
		C66.8,24.2,68,25.1,67.5,25.4z M97.5,145.4c0.1-0.1,0.1-0.2,0.1-0.2c-0.1-0.1-0.2-0.1-0.2-0.2c0.1,0.1,0.2,0.2,0.2,0.2
		C97.8,145.4,98.1,145.5,97.5,145.4z M112.5,145.8c-0.7,0.3-1.5-0.4-1.1-1C111.9,144.1,113.4,145.4,112.5,145.8z M125.9,146.5
		c0.1,0.3-0.2,1.3-0.6,1.4c-0.5,0.1-0.5-1-1.2-1.5c-0.9-0.6-1.5-1.4-2.2-2.1c-0.6-0.6-0.8-1.2-0.3-1.6c0.6-0.6,0.7-1.9,2.7-2.8
		c1-0.5,1.9,2.1,2.3,3.2C127.2,144.6,125.5,144.1,125.9,146.5z M129.8,133.4c-0.6,0.1-1.4-0.1-2.2-0.4c-0.4-0.1-1-1-1-1.2
		c0.2-0.7-0.1-0.6,2.5-1.9C130.2,129.4,133.2,132.7,129.8,133.4z M129.6,120.9H119c-4,0-5.2-3.1-12.4-10.2c-6.3-6-9-6.7-10.6-6.7
		c-3.4,0-2.8,1.1-2.8,12.9c0,2.6-0.9,4-7.6,4c-11.2,0-23.5-6.7-32.3-19c-13.1-18-16.7-31.7-16.7-34.5c0-1.5,0.6-2.9,3.6-2.9h10.6
		c2.7,0,3.7,1.2,4.8,4c5.2,14.8,13.9,27.7,17.5,27.7c1.4,0,2-0.7,2-4V77c-0.4-7.1-4.2-7.6-4.2-10.1c0-1.2,1-2.4,2.7-2.4h16.6
		c2.2,0,3,1.2,3,3.8v20.6c0,2.2,1,3,1.7,3c1.4,0,2.5-0.8,4.9-3.2c7.6-8.3,13-21.2,13-21.2c0.7-1.5,1.9-2.9,4.6-2.9H128
		c2.5,0,3.4,1,3.4,2.4c0,0.4-0.1,0.9-0.2,1.4c-1.3,6.1-14.2,23.9-14.2,23.9c-1.1,1.8-1.6,2.6,0,4.6c0.7,0.8,14.2,13.5,16.3,19.6
		C134.1,119.4,132.6,120.9,129.6,120.9z M140.8,72c0.3,0.1,0.5,1.2-0.5,0.7C139.9,72.5,139.9,71.6,140.8,72z M146,79.7
		c-0.9,1.7-1.5,2.2-3.1,1.6c-0.6-0.2-1.2-0.5-1.5-1c-1.5-2.8-2.4-3,2.1-2.5C144.1,77.9,146.5,78.7,146,79.7z M148.7,64.4
		c-0.2,0.1-0.7,0-0.8-0.3c-0.3-0.9,0.6-1.5,1.1-1.3C149.4,62.9,149.8,63.9,148.7,64.4z M152.7,66.6c0.1-0.6,2,0,1.8,0.8
		C154,69.1,152.4,68.3,152.7,66.6z M155.2,71.4c-1.1-0.3-0.7-1.3,0-1.3C155.9,70.2,156.2,71.7,155.2,71.4z M161.2,75.4
		c-1.8,0.2-2.6-2.3-0.2-3.2c1.1-0.5,3.4,0.9,4.1,2.5C165.4,75.7,164.7,75.1,161.2,75.4z"/>
	<path class="st0" d="M169,54.1c-0.7,0.4-1.4,0.9-1.6,1.7c-0.4,1.6-2,1.4-2.5,1.1c-4-2.7-3.8-2-6.2-4.3c-0.9-0.9,0-1.5,0.3-1.8
		l-0.2,0c5.1,4,5.2-5.3,8.4-3.8c1.5,0.7,1.9,0.9,3.5,3.8c0.3,0.5,0,1.4,0,1.7c-0.1,1.3,2.9,2.7,4.2,2.8c0.6,0.1,1.1,0.6,1,1.1
		c-0.1,0.7,0.2,1.5,0.6,2.3c-0.2-0.3-0.6,0-1.1-0.1c-9.7-3.4-6.2-8.6-11.5-6.8c-2.2,0.8-0.6,2.9,0.3,3
		C166.1,54.9,167.7,54.8,169,54.1z"/>
	<path class="st0" d="M129.7,22.4c0.7-0.3,0.9,0.2,0.7,0.5c-0.7,0.7-1,0.6-1.4,0.9c-1,0.6-2.2,2.3-1,3.6c3,3.1,5.2,1.7,3,3.8
		c-1.7,1.6,0.1,3.1-2.3,2.8c-0.5-0.1-1.7-0.9-1.5-1.5c0.9-3.9-3.7-4.7-1.5-6.3C128.3,24.4,127.8,23.2,129.7,22.4z"/>
	<path class="st0" d="M108.1,164.3c-3.2-1-1.7,2.1-3.4,1.9c-0.7-0.1-0.9-0.3-3-3.9c-1.6-2.8-0.3-5.1,1.5-3.8
		c2.3,1.6,1.5,1.6,4.1,3.7c0.9,0.8,1.5,0.6,2.5,0.3c-0.4,0,1.1,0.6,0.5,1.5c-0.3,0.4-0.7,0.8-1,1.1
		C109.8,165.6,109.3,164.6,108.1,164.3z"/>
	<path class="st0" d="M154.9,41.9c0,0.2-0.3,1.1-1.2,1c-0.8-0.1-1.1-1-1.8-2c-1.4-2.2-5.4,0.1-0.9-3.1c1.2-0.9-1.2-1.3,0.1-3.6
		c0.2-0.4,3.3,0.6,3.3,2.3c0,0.8-0.6,1.9,0.4,3.4c-2.9-3-3.1-0.7-1.8-0.4C155,39.9,154.9,39,154.9,41.9z"/>
	<path class="st0" d="M129.7,17.1c-0.2,0.3-0.5,0.3-0.9,0c-0.1-0.1-0.1-0.3-0.2-0.5c-0.6-1.1-1.9-0.6-1.9-0.1
		c-0.2,1.9-1.4,1.6-2.2,1c-1.6-1.3,0.8-2.1,1.6-3.2c0.4-0.5,0.4-3.1,2.1-1.2C130.6,15.7,131,15.5,129.7,17.1z"/>
	<path class="st0" d="M137,21.5c-2.2-0.6-2.9-1.6-4.5-1.7c-1.9-1.6,5.2-5.2,5-3.4c-0.2,3.1-0.3,3.2-0.7,5.2
		C136.7,21.5,137,21.5,137,21.5z"/>
	<path class="st0" d="M120.4,23.3c-1.3-1.5-0.5-1.6-1.4-2.2c-0.6-0.4-2.3-0.5-2.7,1.5c0-0.1,0-0.1-0.1-0.1c0,0,0,0,0,0s0,0,0,0.1v0
		c0.3,0.9,0.1,1.5-0.8,1.8c-0.1,0-0.3,0.1-0.3,0.1c0,0,0,0,0,0h0c0,0,0,0,0.1,0c0.7,2.2,3.9,4,5.6,0.1C121,24.4,121,23.9,120.4,23.3
		z M118,25.1c0-0.3,0.4-0.4,0.7-0.2C119.5,25.4,118.1,26.1,118,25.1z"/>
	<path class="st0" d="M131.7,149.5c-1.4-0.6-2.3-2-2.2-2.3c0.2-2.3,2.2-1.4,2.5-0.9c0.2,0.5,0.3-0.2,0.5,3
		C132.5,149.4,132.1,149.6,131.7,149.5z"/>
	<path class="st0" d="M161.6,36.4c-0.6,0.7-2.7-1.1-1-1.8c0.7-0.3,0.3-1.3,1.1-1.5c0.6-0.1,1.6,0.4,1.4,1.1
		C162.9,35.1,162.6,35.3,161.6,36.4z"/>
	<path class="st0" d="M51.7,26.7c-0.8-1.6,4.3,0.4,2.3,1.9c-0.8,0.6-1.5,0.9-1.6-0.1C52.4,27.8,51.8,27.1,51.7,26.7z"/>
	<path class="st0" d="M148.8,47.1c0.1-0.3,0.2-0.8,0.3-1.3c0.3-1,2-0.4,2.6,0.4c0.5,0.5,0,0.9-0.4,0.9c-2.3-0.1-1.6,1.2-2.3,1.9
		c-0.3,0.3-1.1,0.1-1.1-0.5C147.9,48,148.4,47.6,148.8,47.1z"/>
	<path class="st0" d="M135.3,25.2c0.5-2.7-0.4-0.8,0.8-3.4c0.1-0.2,0.5-0.2,0.8-0.3c0,0-0.2,0-0.2,0c0.5,0.4,1.2,0.4,1.5,0.9
		c0.4,0.6-0.1,1.1-0.2,1.5c-0.1,0.5,0.4,1-0.5,1.2c-1.8,0.4-1.1,0.4-2.4,0L135.3,25.2z"/>
	<path class="st0" d="M5.7,86.2c-1.5,1.1-2.1,1.8-3.3,0.9C-1.9,84,7.3,85,5.7,86.2z"/>
	<path class="st0" d="M158,31.1c-0.9-0.6-1-1-0.9-1.6c0.3-1.7,3.1-0.5,2.9,0.3C159.8,31.4,159.9,32.4,158,31.1z"/>
	<path class="st0" d="M164.1,46.2c-0.8,0.4-0.8,1.3-1.4,1.9c-0.3,0.3-1.5,0.1-2.1-0.3c-0.6-0.5-0.4-1-0.1-1.1
		c0.3-0.1,1.9,0.5,2.5-0.8c0.1-0.2,0.3-0.4,0.5-0.5c0.1-0.1,0.4,0,0.6,0.1C164.2,45.6,164.3,46.1,164.1,46.2z"/>
	<path class="st0" d="M140.3,29.1c-0.4-0.8,1.5-0.2,1.9-0.6c0.2-0.1,1.4-0.9,1.6-0.6c0.4,0.5,0.2,0.8-1.1,1.9
		C142.1,30.3,140.5,29.5,140.3,29.1z"/>
	<path class="st0" d="M162.6,40.2c0-0.7,1.7-0.2,2.2,0.7C165.6,42.4,162.6,42.3,162.6,40.2z"/>
	<path class="st0" d="M152.3,119c0.2-0.1,1.4,0.1-0.4,2.7c-0.1,0.2-0.8,0.5-1.3,0.2c-0.2-0.2-0.4-0.7-0.2-0.8
		C150.6,120.7,151.9,119.3,152.3,119z"/>
	<path class="st0" d="M114.6,29.3c1.9,2.4-2.3,2.8-1.3-0.3C113.4,28.6,114.4,28.9,114.6,29.3z"/>
	<path class="st0" d="M171.1,45.2c-0.2-1.2,1.3-1.3,2.4-0.2C174.9,46.4,171.3,46.4,171.1,45.2z"/>
	<path class="st0" d="M133.5,13.1c-0.3,0.2-1.3-0.4-1.1-0.8C133.3,10.2,135.4,11.7,133.5,13.1z"/>
	<path class="st0" d="M119.6,18.8c-0.3,0.6-0.6,0.7-1,0.3c-0.4-0.4-0.2-0.5,0.2-0.9c0.1-0.1,0.5-0.4,0.7-0.3
		C120.1,18,119.8,18.4,119.6,18.8z"/>
	<path class="st0" d="M177.6,52.8c0.1,0.7-1,0.7-1.5,0C173.7,49.3,177.4,51.3,177.6,52.8z"/>
	<path class="st0" d="M20.2,63.3c-0.2,1.8-4.2,0.1-3-0.6c0.9-0.5,2.8,0.5,2.9-0.7C20.1,62,20.2,63,20.2,63.3z"/>
	<path class="st0" d="M14.4,75.7c-1.2-0.7-1.2-1.3-0.2-1.4C15.3,74.1,15.8,76.4,14.4,75.7z"/>
	<path class="st0" d="M158,25.7c1,0.3,0.8,1.3-0.1,1C156.6,26.2,155.8,24.9,158,25.7z"/>
	<path class="st0" d="M116.6,156.2c-0.2,0.3-0.9,0.4-1.2-0.2c-0.8-1.4-0.7-1.4-0.4-1.6C115.8,154.1,117.2,155.4,116.6,156.2z"/>
	<path class="st0" d="M162.4,60.2c0.1,0.1,0.3,0.3,0.3,0.4c-0.1,0.7-0.5,1.1-1.3,1.4C161.8,62.7,160.6,61,162.4,60.2z"/>
	<path class="st0" d="M155.9,43c-0.3-0.6,0.4-0.6,0.7-0.3C157.3,43.4,156.2,43.7,155.9,43z"/>
	<path class="st0" d="M113.7,23.9c-1.3-0.9,1.5-1.2,1.4,0.6C115.6,24.4,114.8,24.7,113.7,23.9z"/>
	<path class="st0" d="M159.1,50.8c-0.7-0.4-1.5-0.8-2.1-1.2c-0.6-0.4-0.3-1,0.1-0.9C157.7,48.9,158.4,50.7,159.1,50.8z"/>
	<path class="st0" d="M119.4,31.9c-0.8-0.8,0-1.2,0.9-0.4C121.1,32.2,120.1,32.7,119.4,31.9z"/>
	<path class="st0" d="M107.5,0.3c0.2-0.5,1.5-0.3,1.4,0.3C108.8,1.4,107.4,0.7,107.5,0.3z"/>
	<path class="st0" d="M167.3,37.6c0.2,0.4,0.1,0.6-0.2,0.7c-0.1,0-0.5,0-0.5,0C165.8,37.4,166.9,37,167.3,37.6z"/>
	<path class="st0" d="M158.8,34.5c-0.2,0.6-1.4,0.1-1.4-0.5C157.3,33.1,159.1,33.7,158.8,34.5z"/>
	<path class="st0" d="M183.1,49.2c0.1-0.5,1-0.3,1.2-0.1c0.3,0.2,0.4,1-0.5,0.8C183.5,49.8,183,49.3,183.1,49.2z"/>
	<path class="st0" d="M57.4,24c-1.1-0.9,0.3-1.5,0.8-0.5C58.5,24.1,57.7,24.2,57.4,24z"/>
	<path class="st0" d="M135,26.6c-0.3,0.3-1.2-0.1-1-0.6c0.1-0.6,0.6-0.8,1.4-0.8C134.9,24.6,135.8,25.8,135,26.6z"/>
	<path class="st0" d="M148.6,22.9c0.4,0.4,1.5,0.1,0.2-0.7C148.7,22.5,148,22.3,148.6,22.9z"/>
	<path class="st0" d="M127.4,20.3c-0.4-0.4-0.4-0.3,0-0.5C127.7,20.1,127.8,20,127.4,20.3z"/>
	<path class="st0" d="M141.4,35.6c-0.1,0-0.4,0-0.4,0c-0.3-0.3-0.3-0.6-0.1-0.7C141.4,34.6,141.8,35.3,141.4,35.6z"/>
	<path class="st0" d="M167.4,80.8c-0.1,0-0.2,0-0.4,0c0-0.1-0.1-0.3,0-0.3C167.4,80.4,167.5,80.5,167.4,80.8z"/>
	<path class="st0" d="M148.7,123.2l0.4,0.2C148.9,123.5,149,123.6,148.7,123.2z"/>
	<path class="st0" d="M111.3,151.4c-0.7-0.3-0.2-0.9,0.3-0.5C111.8,151.1,111.5,151.4,111.3,151.4z"/>
	<path class="st0" d="M110.1,161.4c0.1,0.5,0,0.8-0.3,1.1l0.1,0c-0.8-0.9-0.3-1.2,0.4-2.2C110.3,160.2,109.9,160.6,110.1,161.4z"/>
	<path class="st0" d="M24.5,75.1c-0.2-0.1,0-0.1,0.5,0C25.1,75.1,24.8,75.2,24.5,75.1z"/>
	<path class="st0" d="M147.8,126.7c-0.1-0.2,0.8,0.5,0.9,0.7C149.7,128.2,152,128,147.8,126.7z"/>
	<path class="st0" d="M21.2,82.1c-0.5,0-0.4,0.1-0.6-0.4C21.1,81.7,21,81.6,21.2,82.1z"/>
	<path class="st0" d="M149.6,54.2c0,0.1,0,0.2-0.1,0.2C150.2,54.6,149.2,54.3,149.6,54.2z"/>
	<path class="st0" d="M168.4,63.5l-0.3-0.2C168.5,63.2,168.4,63.2,168.4,63.5z"/>
	<path class="st0" d="M168.3,58.1c-0.2-0.5-0.3-0.4,0.3-0.4C168.8,58.2,168.9,58.1,168.3,58.1z"/>
	<path class="st0" d="M122.8,30.3l0.3,0.2C122.7,30.6,122.8,30.7,122.8,30.3z"/>
	<path class="st0" d="M176.7,58.3c0.4,0.3,0.3,0.3-0.3,0.1C176.5,58.7,176.5,58.6,176.7,58.3z"/>
	<path class="st0" d="M116,22.5l0.4,0.1C116.2,22.4,116.3,22.4,116,22.5z"/>
	<path class="st0" d="M26.6,32.9l0.3,0.2C26.5,33.2,26.6,33.3,26.6,32.9z"/>
	<path class="st0" d="M110,155.7l0.1-0.2C110.4,155.9,110.5,155.9,110,155.7z"/>
	<path class="st0" d="M109.4,157l0.1,0.3C109.4,157.2,109.2,157,109.4,157z"/>
	<path class="st0" d="M153.4,29.9l-0.2,0.2C153,29.6,152.9,29.7,153.4,29.9z"/>
	<path class="st0" d="M148.8,22.2c0.1,0.1,0.2,0.2,0.2,0.3C149.3,22,148.7,22.6,148.8,22.2z"/>
	<path class="st0" d="M109.4,165.1c0.1,0.1,0.2,0.1,0.4,0.2c-0.1-0.3-0.1-0.3-0.2,0C109.6,165.3,109.4,165.1,109.4,165.1z"/>
	<path class="st0" d="M150.2,127.5c0,0.1,0,0.1,0,0.2C150.2,127.7,150.2,128,150.2,127.5z"/>
</g>
</svg>
